<svg width="22" height="22" viewBox="0 0 22 22" fill="none" xmlns="http://www.w3.org/2000/svg">
<path d="M9.77798 21.3398C9.18227 21.3398 8.74282 20.9883 8.61587 20.4121L8.12759 18.3516C7.79556 18.2344 7.48306 18.1074 7.19009 17.9707L5.39321 19.084C4.90493 19.3867 4.32876 19.3379 3.92837 18.9375L2.67837 17.6777C2.26821 17.2773 2.20962 16.6816 2.53188 16.1934L3.6354 14.4062C3.49868 14.1133 3.37173 13.8008 3.27407 13.498L1.19399 13.0098C0.617821 12.8828 0.276024 12.4434 0.276024 11.8574V10.0996C0.276024 9.52344 0.617821 9.07422 1.19399 8.94727L3.25454 8.44922C3.37173 8.10742 3.49868 7.80469 3.61587 7.54102L2.51235 5.71484C2.19985 5.2168 2.23891 4.66016 2.65884 4.25L3.92837 2.99023C4.34829 2.60938 4.8561 2.55078 5.35415 2.82422L7.18032 3.94727C7.47329 3.80078 7.79556 3.67383 8.12759 3.56641L8.61587 1.48633C8.74282 0.910156 9.18227 0.558594 9.77798 0.558594H11.5651C12.151 0.558594 12.5905 0.910156 12.7174 1.48633L13.2155 3.57617C13.5475 3.69336 13.86 3.82031 14.1432 3.95703L15.9791 2.82422C16.4772 2.55078 16.9948 2.61914 17.4049 2.99023L18.6745 4.25C19.0944 4.66016 19.1334 5.2168 18.8209 5.71484L17.7174 7.54102C17.8346 7.80469 17.9713 8.10742 18.0788 8.44922L20.1393 8.94727C20.7155 9.07422 21.0573 9.52344 21.0573 10.0996V11.8574C21.0573 12.4434 20.7155 12.8828 20.1393 13.0098L18.0592 13.498C17.9616 13.8008 17.8346 14.1133 17.6979 14.4062L18.8014 16.1934C19.1237 16.6816 19.0651 17.2773 18.6647 17.6777L17.4049 18.9375C17.0045 19.3379 16.4284 19.3867 15.9499 19.084L14.1432 17.9707C13.8502 18.1074 13.5377 18.2344 13.2057 18.3516L12.7174 20.4121C12.5905 20.9883 12.151 21.3398 11.5651 21.3398H9.77798ZM10.6666 14.3672C12.5514 14.3672 14.0846 12.8242 14.0846 10.9395C14.0846 9.07422 12.5514 7.54102 10.6666 7.54102C8.79165 7.54102 7.25845 9.07422 7.25845 10.9395C7.25845 12.8242 8.79165 14.3672 10.6666 14.3672Z" fill="#9462FF"/>
</svg>
